<svg width="110" height="22" viewBox="0 0 110 22" fill="none" xmlns="http://www.w3.org/2000/svg">
<path d="M2.94691 22L0 19.5269H20.6782L2.94691 22Z" fill="#BF0000"/>
<path d="M6.30944 17.6732V12.1908H8.68277L12.7935 17.6732H16.9998L12.0121 11.0603C13.0681 10.3132 13.8588 9.24936 14.2695 8.02275C14.6803 6.79619 14.6898 5.47066 14.2966 4.23832C13.9034 3.00603 13.128 1.93092 12.0828 1.16884C11.0375 0.406802 9.77678 -0.00256489 8.48326 1.20924e-05H2.95105V17.6732H6.30944ZM6.30944 3.35425H8.49988C9.20843 3.38185 9.87874 3.68273 10.3703 4.19381C10.8618 4.70484 11.1363 5.38637 11.1363 6.09542C11.1363 6.8045 10.8618 7.48603 10.3703 7.99707C9.87874 8.50814 9.20843 8.80903 8.49988 8.83662H6.30944V3.35425Z" fill="#BF0000"/>
<path d="M29.4192 15.0047C27.9021 17.0829 26.1938 18.0139 23.9535 18.0139C20.0922 18.0139 17.3032 15.0712 17.3032 10.9729C17.3032 6.96196 20.0132 3.90698 23.5129 3.90698C27.0126 3.90698 29.7268 7.04509 29.7268 10.9313C29.7274 11.2595 29.7052 11.5872 29.6603 11.9123H20.8487C21.0606 13.8118 22.2785 14.9839 24.0283 14.9839C24.9885 14.9839 25.8613 14.4518 26.6303 13.4252L29.4192 15.0047ZM26.1315 9.15655C25.8114 7.55633 24.9136 6.72504 23.5503 6.72504C22.187 6.72504 21.2643 7.62283 20.9235 9.15655H26.1315Z" fill="black"/>
<path d="M41.5892 17.6732L38.0064 11.742L34.4069 17.6732H30.4583L35.7328 9.18164L30.716 0.868774H34.5358L37.9939 6.73765L41.4729 0.877087H45.2926L40.2758 9.18995L45.5462 17.6815L41.5892 17.6732Z" fill="black"/>
</svg>
